<?xml version="1.0" encoding="UTF-8" standalone="no"?>
<!-- Created with Inkscape (http://www.inkscape.org/) -->
<svg
   xmlns:dc="http://purl.org/dc/elements/1.1/"
   xmlns:cc="http://creativecommons.org/ns#"
   xmlns:rdf="http://www.w3.org/1999/02/22-rdf-syntax-ns#"
   xmlns:svg="http://www.w3.org/2000/svg"
   xmlns="http://www.w3.org/2000/svg"
   xmlns:sodipodi="http://sodipodi.sourceforge.net/DTD/sodipodi-0.dtd"
   xmlns:inkscape="http://www.inkscape.org/namespaces/inkscape"
   id="svg2"
   sodipodi:version="0.32"
   inkscape:version="0.46"
   width="299"
   height="197"
   version="1.0"
   sodipodi:docname="Typing_monkey.svg"
   inkscape:output_extension="org.inkscape.output.svg.inkscape">
  <metadata
     id="metadata7">
    <rdf:RDF>
      <cc:Work
         rdf:about="">
        <dc:format>image/svg+xml</dc:format>
        <dc:type
           rdf:resource="http://purl.org/dc/dcmitype/StillImage" />
      </cc:Work>
    </rdf:RDF>
  </metadata>
  <defs
     id="defs5">
    <inkscape:perspective
       sodipodi:type="inkscape:persp3d"
       inkscape:vp_x="0 : 526.18109 : 1"
       inkscape:vp_y="0 : 1000 : 0"
       inkscape:vp_z="744.09448 : 526.18109 : 1"
       inkscape:persp3d-origin="372.04724 : 350.78739 : 1"
       id="perspective9" />
  </defs>
  <sodipodi:namedview
     inkscape:window-height="667"
     inkscape:window-width="640"
     inkscape:pageshadow="2"
     inkscape:pageopacity="0.0"
     guidetolerance="10.0"
     gridtolerance="10.0"
     objecttolerance="10.0"
     borderopacity="1.0"
     bordercolor="#666666"
     pagecolor="#ffffff"
     id="base"
     showgrid="false"
     inkscape:zoom="1.819398"
     inkscape:cx="149.5"
     inkscape:cy="90.321269"
     inkscape:window-x="22"
     inkscape:window-y="29"
     inkscape:current-layer="svg2" />
  <path
     style="fill:#000000"
     d="M 35.330754,190.0494 C 24.237668,189.74723 14.815698,189.15303 14.393041,188.72895 C 11.846324,186.17369 14.435244,154.79059 17.381716,152.5 C 19.984175,150.47684 20.055039,144.09571 17.543684,137.91523 C 15.238671,132.24256 15.226385,132.06292 17.102691,131.46741 C 18.911644,130.89327 18.801058,130.41388 15.340528,123.82848 C 13.309797,119.96399 10.333031,115.48688 8.7254933,113.87934 C 5.6322886,110.78613 5.6420581,108 8.746109,108 C 13.790268,108 17.358652,113.29025 24.012656,130.63316 C 26.676222,137.57545 29.241354,143.64135 29.712949,144.11295 C 30.184543,144.58454 36.629555,145.22298 44.035197,145.5317 C 63.261975,146.33321 66,146.75387 66,148.90629 C 66,151.93612 69.4966,154.09255 75.396811,154.70151 C 79.171138,155.09105 81,155.72374 81,156.6399 C 81,157.47936 82.129357,158 83.95031,158 C 85.57298,158 87.26048,158.63171 87.70031,159.40379 C 88.140139,160.17588 89.625,160.96338 91,161.15379 C 92.712978,161.39101 93.602392,162.22202 93.825252,163.7935 C 94.054931,165.41308 94.642615,165.93401 95.825252,165.56633 C 97.927566,164.91273 100.47191,166.42741 99.611161,167.82014 C 99.235409,168.42812 100.1213,168.99667 101.73305,169.18194 C 105.06008,169.56438 106.28069,173.5293 103.30847,174.29941 C 102.31381,174.55714 103.36436,174.8202 105.64301,174.884 C 110.57927,175.02221 111,175.78386 111,184.58179 L 111,191 L 83.25,190.7994 C 67.9875,190.68907 46.423839,190.35157 35.330754,190.0494 z M 103,187.83909 C 99.555134,186.41409 54.967295,185.52427 41.5,186.61175 L 30.5,187.5 L 45.5,188.0408 C 73.98817,189.06789 105.70164,188.95664 103,187.83909 z M 23.238013,186.03499 C 24.866025,184.13361 26.263972,184.07694 66.409093,184.28499 C 105.18539,184.48594 107.92759,184.38559 108.35522,182.75 C 108.60687,181.7875 108.57276,180.08222 108.27942,178.9605 C 107.83741,177.27025 107.03118,176.958 103.57145,177.13709 C 99.806216,177.33199 98.055494,176.44689 85.719139,168.11164 C 78.196413,163.02879 70.119628,156.68143 67.770728,154.00639 L 63.5,149.14268 L 51.5799,148.04144 C 44.411811,147.37922 39.29672,147.30328 38.749039,147.85096 C 37.413732,149.18627 46.460843,150.96172 53.327725,150.71196 C 58.090818,150.53872 59.414805,150.85397 60.57514,152.43759 C 61.78122,154.08365 61.788788,154.6855 60.625442,156.43759 C 58.917546,159.00982 55.375947,159.23882 55.793837,156.75 C 56.03984,155.28488 55.303584,155 51.271109,155 L 46.454545,155 L 46.454545,158.92013 C 46.454545,165.79329 41.453805,169.0071 33.916927,166.97763 C 29.162724,165.69746 25.611573,160.92953 26.541215,157.07468 C 27.209702,154.30273 24.244974,148 22.272596,148 C 21.516709,148 21,149.25609 21,151.09362 C 21,153.22643 20.443499,154.33277 19.208173,154.65581 C 17.68972,155.0529 17.231912,157.06013 16.207468,167.81219 C 14.544829,185.26244 14.579273,185.89534 17.25,186.96884 C 20.599276,188.31508 21.391526,188.19153 23.238013,186.03499 z M 98.655915,172.51297 C 97.783429,170.63575 97.414575,170.42247 97.151607,171.64314 C 96.883332,172.88844 98.358885,174.8573 99.655915,174.98469 C 99.741668,174.99311 99.291668,173.88084 98.655915,172.51297 z M 93.75,169.9199 C 92.7875,169.3593 92,168.15798 92,167.25031 C 92,165.96961 91.732084,165.86792 90.803747,166.79625 C 89.875409,167.72459 90.04338,168.32217 91.553747,169.46445 C 92.624186,170.27402 93.95,170.93702 94.5,170.93779 C 95.05,170.93856 94.7125,170.48051 93.75,169.9199 z M 86.571429,164.42857 C 85.654762,163.5119 84.621541,163.04513 84.275382,163.39128 C 83.929223,163.73744 84.512444,164.65422 85.571429,165.42857 C 88.061262,167.24918 88.726651,166.58379 86.571429,164.42857 z M 43.58074,163.51712 C 44.911728,161.48577 45.003189,160.4479 44.083659,157.81014 C 41.56015,150.5712 36.016304,147.9837 31.883903,152.1161 C 30.199406,153.80059 29.87618,155.04019 30.299157,158.19371 C 31.027434,163.62342 33.412076,166 38.131935,166 C 41.098181,166 42.318135,165.4441 43.58074,163.51712 z M 59,154.5 C 59,153.675 58.307258,153 57.460573,153 C 56.188673,153 56.145228,153.25406 57.210573,154.46196 C 58.849748,156.32047 59,156.32367 59,154.5 z M 53.75,152.31067 C 52.7875,152.05915 51.2125,152.05915 50.25,152.31067 C 49.2875,152.5622 50.075,152.768 52,152.768 C 53.925,152.768 54.7125,152.5622 53.75,152.31067 z M 137.5,189.36497 C 130.5832,188.41188 129.87481,187.97122 127.83062,183.35 C 126.26841,179.81836 125.96334,177.71674 126.49331,174.13731 C 127.88115,164.76381 130.40483,160.98508 143.56182,148.58049 C 150.41169,142.12233 156.46884,135.99247 157.02217,134.95858 C 157.98979,133.15056 157.86536,133.13708 153.76411,134.6056 C 151.41885,135.44537 142.75,137.63372 134.5,139.46861 C 117.45079,143.26055 112.56853,144.98029 105.51335,149.67895 C 99.761308,153.50974 95.593845,153.90652 92.42068,150.92548 L 90.212457,148.85096 L 86.029456,150.98497 C 80.87887,153.61261 77.5,153.35416 77.5,150.33256 C 77.5,147.82198 90.247213,135.73374 98.361508,130.5495 C 108.38772,124.14372 119.9889,119.01804 130.32071,116.42913 C 142.13494,113.46877 146.17909,111.39821 148.90642,106.91349 C 150.76864,103.85131 150.76523,103.72818 148.65809,97.942554 C 147.12188,93.72455 145.95667,91.99544 144.51081,91.788207 C 143.1026,91.58637 142.39908,90.600954 142.16324,88.5 C 141.97802,86.85 141.19052,85.140139 140.41324,84.70031 C 139.62012,84.25152 139,82.375781 139,80.425559 C 139,77.582481 138.51584,76.766419 136.33774,75.938309 C 133.81383,74.978721 125.651,75.562462 123.5,76.856362 C 122.95,77.187205 119.90136,77.572001 116.72524,77.711464 C 111.91615,77.922631 110.66199,77.618248 109.22524,75.89122 C 108.27636,74.750624 106.47597,73.415245 105.22437,72.923712 C 103.97278,72.432179 102.65642,71.235762 102.29913,70.265008 C 101.94184,69.294254 100.96616,67.433386 100.13096,66.129746 C 98.682578,63.86904 98.415004,56.853675 99.620637,52.75 C 99.961462,51.589916 99.586523,51 98.508371,51 C 97.613848,51 97.165775,50.540788 97.512652,49.979529 C 97.859529,49.41827 96.986086,47.583744 95.571669,45.902804 C 92.111596,41.790741 92.02057,32.996341 95.354203,24.892457 C 97.811282,18.919428 101.65623,12.905224 102.80503,13.238004 C 103.18726,13.348728 106.64605,11.877974 110.49123,9.9696603 C 117.0727,6.7033579 118.01911,6.5107761 126.63874,6.6838594 C 131.6747,6.784982 137.53557,7.3363969 139.66289,7.9092258 C 145.31122,9.4301639 152.57465,14.371974 155.73874,18.846737 C 157.95988,21.987955 161.61229,24.38982 174.41111,31.125903 C 183.16222,35.731656 194.91618,42.225666 200.53103,45.557037 C 234.04561,65.441715 251.69764,85.230799 259.14511,111.26725 C 261.26091,118.66415 261.5,121.50519 261.5,139.25024 L 261.5,159.00048 L 264.78212,159.00024 C 276.14793,158.99941 283.17663,148.6053 283.37833,131.5 C 283.49022,122.01075 283.26615,121.1186 275.21582,99 C 269.88133,84.343304 267.7663,72.489282 268.16809,59.5 C 268.46646,49.854025 268.85589,47.791192 271.33179,42.741693 C 274.50285,36.274416 278.46564,32.796156 284.79309,30.926286 C 288.47977,29.83681 289.30422,29.875645 290.62979,31.201214 C 292.02126,32.592693 291.72736,33.203755 287.64769,37.401433 C 281.91102,43.304033 278.89479,50.985673 278.23089,61.383844 C 277.58674,71.472788 279.07254,79.668531 285.10608,99.307702 C 291.72694,120.85865 293.33143,129.33126 292.78879,139.87678 C 292.22773,150.78008 289.51545,157.30879 283.02452,163.38029 C 276.17828,169.78415 268.11513,171.55713 259.61536,168.52766 C 255.77016,167.15716 255.698,167.17781 252.50571,170.56263 C 247.46461,175.90774 238.88104,179.37096 230.5,179.44127 C 225.70027,179.48154 222.43015,178.94993 220.09636,177.75 C 218.22436,176.7875 216.53686,176 216.34636,176 C 216.15586,176 216,178.16399 216,180.80887 C 216,189.28667 216.1851,189.21652 193.4276,189.3629 C 179.63489,189.45162 172.73035,189.1184 171,188.28052 C 168.99857,187.31138 172.62708,187.19287 189.1946,187.68629 C 207.78461,188.23994 210.15803,188.12647 212.53273,186.57051 C 215.93848,184.33898 215.58355,182.7833 208.40219,168.46644 C 205.26543,162.21295 202.63387,155.4979 202.3279,152.96644 C 201.81385,148.71352 201.86354,148.60187 203.3673,150.63089 C 205.78528,153.89348 209.88162,165.87279 208.71254,166.26249 C 207.40776,166.69741 211.90535,170.20285 219.5,174.67026 C 225.0561,177.93854 225.93229,178.15569 231.34313,177.60542 C 241.02479,176.62083 254,169.35379 254,164.91597 C 254,163.86219 254.61386,163 255.36414,163 C 257.30295,163 259.94126,155.43488 260.65024,147.84256 C 261.44472,139.33472 259.46856,122.84063 256.3763,112.1699 C 246.51588,78.143643 217.68071,51.221909 171,32.458967 C 161.50425,28.642225 160.11743,27.74705 156.5,23.099388 C 152.06433,17.40045 144.58773,11.679102 139.29226,9.9314398 C 137.17753,9.2335141 133.67739,9.0597444 130.28119,9.4840713 C 126.40082,9.9688915 124.50602,9.8187642 123.99116,8.9857043 C 123.44238,8.0977541 122.72828,8.0750544 121.19292,8.8967548 C 120.05913,9.5035397 118.11645,10 116.87585,10 C 115.63526,10 111.52889,11.867811 107.7506,14.150691 C 102.1412,17.539939 100.41275,19.225371 98.328662,23.33812 C 92.417239,35.00375 95.276684,49.951285 102.95362,47.514722 C 103.98655,47.18688 105.12111,47.38695 105.47486,47.959323 C 105.82861,48.531695 105.64148,49 105.05902,49 C 104.47656,49 104,49.6375 104,50.416667 C 104,51.195833 103.57761,51.983333 103.06136,52.166667 C 102.54511,52.35 101.86791,54.975 101.55648,58 C 101.24504,61.025 101.25493,62.9375 101.57845,62.25 C 102.82474,59.601552 104,61.194121 104,65.531385 C 104,70.592348 105.84659,72.201413 109.22984,70.088533 C 111.64508,68.580196 112.73363,69.411106 111.03063,71.463099 C 109.14903,73.730285 110.53546,76 113.80195,76 C 115.37754,76 116.98228,75.684388 117.36803,75.29864 C 118.292,74.37467 124.88027,73.675645 133.25,73.613539 C 138.04639,73.577948 140,73.19249 140,72.281726 C 140,71.576777 140.72609,71 141.61354,71 C 142.95633,71 143.11519,71.746162 142.56026,75.446717 C 142.00507,79.148985 142.23719,80.237186 143.94672,81.946717 C 145.07602,83.076023 146,84.823959 146,85.83102 C 146,86.838081 147.03658,88.216801 148.30351,88.894842 C 152.05428,90.902191 160.95295,119.9058 160.98522,130.22855 L 161,134.95711 L 145.32983,150.30535 L 129.65965,165.65359 L 129.21068,174.20765 C 128.80569,181.92358 128.96934,182.96934 130.88085,184.88085 C 132.53058,186.53058 134.22932,187 138.54966,187 C 145.32927,187 149.30717,185.08685 150.99375,181.01509 C 152.67783,176.94937 151.70439,176.2047 148.67093,179.23816 C 146.56214,181.34695 145.91052,181.52248 143.99553,180.49761 C 141.89435,179.37309 142.18061,179.08046 149.13521,175.24336 C 158.35379,170.15714 168.48296,163.03356 178.63908,154.49406 C 182.96259,150.85875 187.85,147.29752 189.5,146.58022 C 193.49269,144.84448 195.63219,142.29393 197.47367,137.07463 C 199.47762,131.39482 199.39936,128.47387 197.06116,121.67777 C 195.85472,118.17118 195.49531,115.81192 196.10972,115.43219 C 196.7453,115.03938 196.70523,114.34975 195.99726,113.4967 C 195.39234,112.76782 194.80104,110.66502 194.68325,108.82381 C 194.56546,106.9826 193.30103,103.45652 191.87341,100.98808 C 190.44578,98.519635 187.82126,93.418526 186.04114,89.652281 C 184.26102,85.886036 181.04854,81.048536 178.90228,78.902281 C 174.59034,74.590336 174.84011,73.995396 179.71458,76.967498 C 183.42243,79.228281 186.50823,83.8056 190.52289,93 C 192.08388,96.575 194.63641,101.44482 196.19516,103.82181 C 197.75392,106.19881 198.7536,108.58967 198.41667,109.13483 C 197.4923,110.6305 200.76315,113.82385 208.14438,118.63205 C 215.01623,123.10842 220,128.11857 220,130.55041 C 220,131.31874 218.06415,130.01152 215.69811,127.64548 C 213.33207,125.27944 208.5441,121.40675 205.05817,119.0395 L 198.72012,114.73541 L 199.43029,120.11771 C 201.25806,133.97009 201.25931,133.91581 199.00006,138.76716 C 196.00006,145.20913 194.76326,146.45359 185.21975,152.63281 C 180.66561,155.58151 176.6836,158.66095 176.37084,159.476 C 176.05807,160.29105 176.74356,163.7455 177.89414,167.15256 C 180.0272,173.46889 179.96516,175.68766 177.73967,172.67693 C 176.59126,171.12332 175.85259,171.11334 167.70613,172.54136 C 155.62067,174.65985 154.58315,175.16586 153.12203,179.65415 C 152.43344,181.76937 151.63679,184.0625 151.35169,184.75 C 150.96368,185.68568 152.74021,186 158.41667,186 C 162.5875,186 166,186.40656 166,186.90347 C 166,187.40038 161.8375,188.05007 156.75,188.34722 C 151.6625,188.64438 145.925,189.08795 144,189.33293 C 142.075,189.57791 139.15,189.59233 137.5,189.36497 z M 168,170.5 C 175.67169,169.39851 176.07427,169.16274 175.37287,166.18198 C 175.02577,164.70689 174.35888,163.0815 173.8909,162.57 C 173.03407,161.63352 163.33916,167.68149 160.80774,170.73165 C 159.69938,172.06716 159.79891,172.20728 161.50784,171.7173 C 162.60353,171.40314 165.525,170.85536 168,170.5 z M 274.27733,166.93987 C 279.02569,165.62124 284.52567,160.85008 287.08865,155.82623 C 289.88346,150.34794 291.02615,139.42635 289.92157,128.74977 C 288.68591,116.80632 286.83346,109.14293 281.27986,93 C 277.02693,80.637783 276.59856,78.516127 276.19721,67.826172 C 275.6364,52.888768 277.87938,44.313445 284.04165,37.835559 C 289.32471,32.281909 287.86553,30.558791 281.31109,34.61109 C 278.41662,36.400601 275.37159,39.463544 273.53703,42.430878 C 270.76351,46.916941 270.4916,48.173515 270.15287,58.069771 C 269.702,71.242293 271.21906,79.362444 278.10301,100.62345 C 286.21678,125.68276 287.4668,135.00461 283.9675,144.35731 C 279.53528,156.20348 271.80477,162.54748 262.67744,161.82889 C 259.08295,161.5459 258.45858,161.78974 258.20321,163.57631 C 257.64737,167.46487 266.05302,169.22378 274.27733,166.93987 z M 132.5,137.51174 C 141.85,135.01481 151.43795,132.25626 153.80655,131.38163 C 158.74685,129.55737 158.73897,129.74876 154.43668,116.0734 C 153.15165,111.98877 152.32926,108.27627 152.60914,107.8234 C 152.88903,107.37053 152.6718,107 152.1264,107 C 151.58101,107 150.84959,107.89853 150.50104,108.99673 C 149.5472,112.00202 142.50738,115.60987 133,117.96588 C 123.25817,120.37998 119,121.91303 119,123.00622 C 119,123.42618 116.6375,124.5368 113.75,125.47426 C 106.14077,127.94468 98.157885,132.41561 91.752326,137.7944 C 85.632088,142.9336 80.447177,148.78051 81.275521,149.60885 C 81.563933,149.89727 84.968709,148.47326 88.84169,146.4444 C 94.737137,143.35607 96.482552,142.86795 99.563526,143.44594 L 103.24358,144.13632 L 100.62179,146.87288 C 99.179805,148.37799 98,149.85919 98,150.16444 C 98,150.46969 101.9375,148.76918 106.75,146.38553 C 112.46801,143.55337 121.39072,140.47849 132.5,137.51174 z M 95.457295,148.0691 C 96.196836,146.8725 94.31567,145.68687 92.983688,146.51008 C 91.86533,147.20126 92.599521,149 94,149 C 94.485081,149 95.140864,148.58109 95.457295,148.0691 z M 136.41111,44.923275 C 137.835,43.231076 139,40.898152 139,39.738999 C 139,36.260567 135.00691,29.105701 131.64763,26.564933 C 125.47952,21.899728 120.51706,23.038078 118.78458,29.515615 C 117.4359,34.55817 116,34.480018 116,29.36406 C 116,24.443368 120.86405,19.507192 124.77517,20.458777 C 136.74382,23.370785 145.70093,40.157087 138.36514,45.92742 C 134.48308,48.98105 133.44541,48.447808 136.41111,44.923275 z"
     id="path2384" />
</svg>
